<svg xmlns="http://www.w3.org/2000/svg" width="900" height="560" viewBox="0 0 900 560">
  <rect width="900" height="560" fill="#0e1117"/>
  <rect width="220" height="560" fill="#262730"/>
  <text x="20" y="40" font-family="sans-serif" font-size="13" fill="#ffffff" font-weight="bold">🏥 Disease Prediction</text>
  <text x="20" y="70" font-family="sans-serif" font-size="11" fill="#a0a0b0">Select Disease</text>
  <rect x="15" y="80" width="190" height="34" rx="6" fill="#ff4b4b"/>
  <text x="110" y="102" font-family="sans-serif" font-size="12" fill="#ffffff" text-anchor="middle">🩸 Diabetes</text>
  <rect x="15" y="122" width="190" height="34" rx="6" fill="#1a1a2e"/>
  <text x="110" y="144" font-family="sans-serif" font-size="12" fill="#a0a0b0" text-anchor="middle">❤️ Heart Disease</text>
  <rect x="15" y="164" width="190" height="34" rx="6" fill="#1a1a2e"/>
  <text x="110" y="186" font-family="sans-serif" font-size="12" fill="#a0a0b0" text-anchor="middle">🧠 Parkinson's</text>
  <text x="250" y="45" font-family="sans-serif" font-size="22" fill="#ffffff" font-weight="bold">🏥 Disease Prediction System</text>
  <text x="250" y="68" font-family="sans-serif" font-size="13" fill="#a0a0b0">ML-powered prediction for Diabetes, Heart Disease and Parkinson's</text>
  <line x1="240" y1="78" x2="880" y2="78" stroke="#333" stroke-width="1"/>
  <text x="250" y="108" font-family="sans-serif" font-size="17" fill="#ffffff" font-weight="bold">🩸 Diabetes Prediction</text>
  <text x="250" y="140" font-family="sans-serif" font-size="11" fill="#a0a0b0">Pregnancies</text>
  <rect x="250" y="148" width="145" height="32" rx="5" fill="#262730" stroke="#444" stroke-width="1"/>
  <text x="268" y="169" font-family="sans-serif" font-size="13" fill="#ffffff">2</text>
  <text x="415" y="140" font-family="sans-serif" font-size="11" fill="#a0a0b0">Glucose Level (mg/dL)</text>
  <rect x="415" y="148" width="145" height="32" rx="5" fill="#262730" stroke="#444" stroke-width="1"/>
  <text x="433" y="169" font-family="sans-serif" font-size="13" fill="#ffffff">148</text>
  <text x="580" y="140" font-family="sans-serif" font-size="11" fill="#a0a0b0">Blood Pressure (mm Hg)</text>
  <rect x="580" y="148" width="145" height="32" rx="5" fill="#262730" stroke="#444" stroke-width="1"/>
  <text x="598" y="169" font-family="sans-serif" font-size="13" fill="#ffffff">72</text>
  <text x="250" y="205" font-family="sans-serif" font-size="11" fill="#a0a0b0">Skin Thickness (mm)</text>
  <rect x="250" y="213" width="145" height="32" rx="5" fill="#262730" stroke="#444" stroke-width="1"/>
  <text x="268" y="234" font-family="sans-serif" font-size="13" fill="#ffffff">35</text>
  <text x="415" y="205" font-family="sans-serif" font-size="11" fill="#a0a0b0">Insulin Level (mu U/ml)</text>
  <rect x="415" y="213" width="145" height="32" rx="5" fill="#262730" stroke="#444" stroke-width="1"/>
  <text x="433" y="234" font-family="sans-serif" font-size="13" fill="#ffffff">0</text>
  <text x="580" y="205" font-family="sans-serif" font-size="11" fill="#a0a0b0">BMI</text>
  <rect x="580" y="213" width="145" height="32" rx="5" fill="#262730" stroke="#444" stroke-width="1"/>
  <text x="598" y="234" font-family="sans-serif" font-size="13" fill="#ffffff">33.6</text>
  <text x="250" y="270" font-family="sans-serif" font-size="11" fill="#a0a0b0">Diabetes Pedigree Function</text>
  <rect x="250" y="278" width="145" height="32" rx="5" fill="#262730" stroke="#444" stroke-width="1"/>
  <text x="268" y="299" font-family="sans-serif" font-size="13" fill="#ffffff">0.627</text>
  <text x="415" y="270" font-family="sans-serif" font-size="11" fill="#a0a0b0">Age</text>
  <rect x="415" y="278" width="145" height="32" rx="5" fill="#262730" stroke="#444" stroke-width="1"/>
  <text x="433" y="299" font-family="sans-serif" font-size="13" fill="#ffffff">50</text>
  <rect x="250" y="335" width="200" height="40" rx="6" fill="#ff4b4b"/>
  <text x="350" y="360" font-family="sans-serif" font-size="14" fill="#ffffff" text-anchor="middle" font-weight="bold">🔍 Predict Diabetes</text>
  <rect x="250" y="395" width="620" height="70" rx="8" fill="#3d1a1a" stroke="#ff4b4b" stroke-width="1.5"/>
  <text x="272" y="422" font-family="sans-serif" font-size="14" fill="#ff6b6b" font-weight="bold">⚠️ Result: POSITIVE — Risk: 72.4%</text>
  <text x="272" y="448" font-family="sans-serif" font-size="12" fill="#a0a0b0">Model Confidence: 86.3%  |  Gradient Boosting Classifier  |  5-Fold CV: 91.2%</text>
  <text x="250" y="535" font-family="sans-serif" font-size="11" fill="#555">⚠️ For educational purposes only. Always consult a medical professional.</text>
</svg>
