<svg xmlns="http://www.w3.org/2000/svg" width="900" height="560" viewBox="0 0 900 560">
  <rect width="900" height="560" fill="#0e1117"/>
  <rect width="220" height="560" fill="#262730"/>
  <text x="20" y="40" font-family="sans-serif" font-size="13" fill="#ffffff" font-weight="bold">🏥 Disease Prediction</text>
  <rect x="15" y="80" width="190" height="34" rx="6" fill="#1a1a2e"/>
  <text x="110" y="102" font-family="sans-serif" font-size="12" fill="#a0a0b0" text-anchor="middle">🩸 Diabetes</text>
  <rect x="15" y="122" width="190" height="34" rx="6" fill="#ff4b4b"/>
  <text x="110" y="144" font-family="sans-serif" font-size="12" fill="#ffffff" text-anchor="middle">❤️ Heart Disease</text>
  <rect x="15" y="164" width="190" height="34" rx="6" fill="#1a1a2e"/>
  <text x="110" y="186" font-family="sans-serif" font-size="12" fill="#a0a0b0" text-anchor="middle">🧠 Parkinson's</text>
  <text x="250" y="45" font-family="sans-serif" font-size="22" fill="#ffffff" font-weight="bold">🏥 Disease Prediction System</text>
  <text x="250" y="68" font-family="sans-serif" font-size="13" fill="#a0a0b0">ML-powered prediction for Diabetes, Heart Disease and Parkinson's</text>
  <line x1="240" y1="78" x2="880" y2="78" stroke="#333" stroke-width="1"/>
  <text x="250" y="108" font-family="sans-serif" font-size="17" fill="#ffffff" font-weight="bold">❤️ Heart Disease Prediction</text>
  <text x="250" y="140" font-family="sans-serif" font-size="11" fill="#a0a0b0">Age</text>
  <rect x="250" y="148" width="130" height="32" rx="5" fill="#262730" stroke="#444" stroke-width="1"/>
  <text x="268" y="169" font-family="sans-serif" font-size="13" fill="#ffffff">63</text>
  <text x="400" y="140" font-family="sans-serif" font-size="11" fill="#a0a0b0">Sex</text>
  <rect x="400" y="148" width="130" height="32" rx="5" fill="#262730" stroke="#444" stroke-width="1"/>
  <text x="418" y="169" font-family="sans-serif" font-size="13" fill="#ffffff">Male</text>
  <text x="550" y="140" font-family="sans-serif" font-size="11" fill="#a0a0b0">Chest Pain Type</text>
  <rect x="550" y="148" width="130" height="32" rx="5" fill="#262730" stroke="#444" stroke-width="1"/>
  <text x="568" y="169" font-family="sans-serif" font-size="13" fill="#ffffff">3</text>
  <text x="700" y="140" font-family="sans-serif" font-size="11" fill="#a0a0b0">Resting BP</text>
  <rect x="700" y="148" width="130" height="32" rx="5" fill="#262730" stroke="#444" stroke-width="1"/>
  <text x="718" y="169" font-family="sans-serif" font-size="13" fill="#ffffff">145</text>
  <text x="250" y="205" font-family="sans-serif" font-size="11" fill="#a0a0b0">Cholesterol (mg/dL)</text>
  <rect x="250" y="213" width="130" height="32" rx="5" fill="#262730" stroke="#444" stroke-width="1"/>
  <text x="268" y="234" font-family="sans-serif" font-size="13" fill="#ffffff">233</text>
  <text x="400" y="205" font-family="sans-serif" font-size="11" fill="#a0a0b0">Max Heart Rate</text>
  <rect x="400" y="213" width="130" height="32" rx="5" fill="#262730" stroke="#444" stroke-width="1"/>
  <text x="418" y="234" font-family="sans-serif" font-size="13" fill="#ffffff">150</text>
  <text x="550" y="205" font-family="sans-serif" font-size="11" fill="#a0a0b0">ST Depression</text>
  <rect x="550" y="213" width="130" height="32" rx="5" fill="#262730" stroke="#444" stroke-width="1"/>
  <text x="568" y="234" font-family="sans-serif" font-size="13" fill="#ffffff">2.3</text>
  <text x="700" y="205" font-family="sans-serif" font-size="11" fill="#a0a0b0">Major Vessels</text>
  <rect x="700" y="213" width="130" height="32" rx="5" fill="#262730" stroke="#444" stroke-width="1"/>
  <text x="718" y="234" font-family="sans-serif" font-size="13" fill="#ffffff">0</text>
  <rect x="250" y="280" width="210" height="40" rx="6" fill="#ff4b4b"/>
  <text x="355" y="305" font-family="sans-serif" font-size="14" fill="#ffffff" text-anchor="middle" font-weight="bold">🔍 Predict Heart Disease</text>
  <rect x="250" y="342" width="620" height="70" rx="8" fill="#1a3d1a" stroke="#00cc66" stroke-width="1.5"/>
  <text x="272" y="369" font-family="sans-serif" font-size="14" fill="#00cc66" font-weight="bold">✅ Result: NEGATIVE — Low Risk: 18.2%</text>
  <text x="272" y="395" font-family="sans-serif" font-size="12" fill="#a0a0b0">Model Confidence: 81.8%  |  Random Forest Classifier  |  ROC-AUC: 93.1%</text>
  <text x="250" y="535" font-family="sans-serif" font-size="11" fill="#555">⚠️ For educational purposes only. Always consult a medical professional.</text>
</svg>
