<svg xmlns="http://www.w3.org/2000/svg" width="900" height="500" viewBox="0 0 900 500">
  <rect width="900" height="500" fill="#0e1117"/>
  <rect width="220" height="500" fill="#262730"/>
  <text x="20" y="40" font-family="sans-serif" font-size="13" fill="#ffffff" font-weight="bold">🏥 Disease Prediction</text>
  <text x="250" y="45" font-family="sans-serif" font-size="20" fill="#ffffff" font-weight="bold">📊 Model Performance Dashboard</text>
  <line x1="240" y1="60" x2="880" y2="60" stroke="#333" stroke-width="1"/>
  <!-- Accuracy cards -->
  <rect x="250" y="80" width="185" height="90" rx="8" fill="#1a1a3e" stroke="#4444cc" stroke-width="1"/>
  <text x="342" y="108" font-family="sans-serif" font-size="12" fill="#a0a0b0" text-anchor="middle">🩸 Diabetes</text>
  <text x="342" y="138" font-family="sans-serif" font-size="28" fill="#4fc3f7" text-anchor="middle" font-weight="bold">91.2%</text>
  <text x="342" y="158" font-family="sans-serif" font-size="11" fill="#666" text-anchor="middle">Accuracy</text>
  <rect x="455" y="80" width="185" height="90" rx="8" fill="#1a1a3e" stroke="#cc4444" stroke-width="1"/>
  <text x="547" y="108" font-family="sans-serif" font-size="12" fill="#a0a0b0" text-anchor="middle">❤️ Heart Disease</text>
  <text x="547" y="138" font-family="sans-serif" font-size="28" fill="#ef5350" text-anchor="middle" font-weight="bold">89.4%</text>
  <text x="547" y="158" font-family="sans-serif" font-size="11" fill="#666" text-anchor="middle">Accuracy</text>
  <rect x="660" y="80" width="185" height="90" rx="8" fill="#1a1a3e" stroke="#44cc88" stroke-width="1"/>
  <text x="752" y="108" font-family="sans-serif" font-size="12" fill="#a0a0b0" text-anchor="middle">🧠 Parkinson's</text>
  <text x="752" y="138" font-family="sans-serif" font-size="28" fill="#66bb6a" text-anchor="middle" font-weight="bold">94.1%</text>
  <text x="752" y="158" font-family="sans-serif" font-size="11" fill="#666" text-anchor="middle">Accuracy</text>
  <!-- Bar Chart -->
  <text x="250" y="205" font-family="sans-serif" font-size="14" fill="#ffffff" font-weight="bold">ROC-AUC Scores by Disease</text>
  <text x="260" y="240" font-family="sans-serif" font-size="12" fill="#a0a0b0">Diabetes</text>
  <rect x="370" y="225" width="380" height="22" rx="3" fill="#1e2030"/>
  <rect x="370" y="225" width="360" height="22" rx="3" fill="#4fc3f7"/>
  <text x="738" y="241" font-family="sans-serif" font-size="12" fill="#ffffff" font-weight="bold">94.8%</text>
  <text x="260" y="278" font-family="sans-serif" font-size="12" fill="#a0a0b0">Heart Disease</text>
  <rect x="370" y="263" width="380" height="22" rx="3" fill="#1e2030"/>
  <rect x="370" y="263" width="352" height="22" rx="3" fill="#ef5350"/>
  <text x="730" y="279" font-family="sans-serif" font-size="12" fill="#ffffff" font-weight="bold">93.1%</text>
  <text x="260" y="316" font-family="sans-serif" font-size="12" fill="#a0a0b0">Parkinson's</text>
  <rect x="370" y="301" width="380" height="22" rx="3" fill="#1e2030"/>
  <rect x="370" y="301" width="368" height="22" rx="3" fill="#66bb6a"/>
  <text x="746" y="317" font-family="sans-serif" font-size="12" fill="#ffffff" font-weight="bold">97.0%</text>
  <!-- Table -->
  <text x="250" y="360" font-family="sans-serif" font-size="14" fill="#ffffff" font-weight="bold">Model Summary Table</text>
  <rect x="250" y="372" width="620" height="28" rx="4" fill="#1e2030"/>
  <text x="265" y="391" font-family="sans-serif" font-size="11" fill="#a0a0b0">Disease</text>
  <text x="420" y="391" font-family="sans-serif" font-size="11" fill="#a0a0b0">Algorithm</text>
  <text x="600" y="391" font-family="sans-serif" font-size="11" fill="#a0a0b0">CV Score</text>
  <text x="730" y="391" font-family="sans-serif" font-size="11" fill="#a0a0b0">Samples</text>
  <rect x="250" y="400" width="620" height="26" fill="#161622"/>
  <text x="265" y="417" font-family="sans-serif" font-size="12" fill="#4fc3f7">🩸 Diabetes</text>
  <text x="420" y="417" font-family="sans-serif" font-size="12" fill="#ccc">Gradient Boosting</text>
  <text x="600" y="417" font-family="sans-serif" font-size="12" fill="#ccc">90.5% ±1.3%</text>
  <text x="730" y="417" font-family="sans-serif" font-size="12" fill="#ccc">768</text>
  <rect x="250" y="426" width="620" height="26" fill="#1e2030"/>
  <text x="265" y="443" font-family="sans-serif" font-size="12" fill="#ef5350">❤️ Heart Disease</text>
  <text x="420" y="443" font-family="sans-serif" font-size="12" fill="#ccc">Random Forest</text>
  <text x="600" y="443" font-family="sans-serif" font-size="12" fill="#ccc">88.2% ±1.8%</text>
  <text x="730" y="443" font-family="sans-serif" font-size="12" fill="#ccc">303</text>
  <rect x="250" y="452" width="620" height="26" fill="#161622"/>
  <text x="265" y="469" font-family="sans-serif" font-size="12" fill="#66bb6a">🧠 Parkinson's</text>
  <text x="420" y="469" font-family="sans-serif" font-size="12" fill="#ccc">SVM (RBF Kernel)</text>
  <text x="600" y="469" font-family="sans-serif" font-size="12" fill="#ccc">93.0% ±1.1%</text>
  <text x="730" y="469" font-family="sans-serif" font-size="12" fill="#ccc">195</text>
</svg>
